<svg width="125.235" height="25.3052" overflow="visible" style="display: block;" viewBox="0 0 125.235 25.3052" fill="none" xmlns="http://www.w3.org/2000/svg">
<g id="Finrez Logo">
<g id="F Blocks">
<path d="M4.05851 8.87902H13.7352L15.1473 14.1488H5.47054L4.05851 8.87902Z" fill="var(--fill-0, #FF401A)"/>
<path d="M16.1543 8.87902H25.831L27.2284 14.1484L17.5664 14.1488L16.1543 8.87902Z" fill="var(--fill-0, #FF401A)"/>
<path d="M1.68119 0.00671575H11.3579L12.7539 5.21654H3.07715L1.68119 0.00671575Z" fill="var(--fill-0, #FF401A)"/>
<path d="M13.777 0.00671733H23.4537L24.8657 5.27646H15.189L13.777 0.00671733Z" fill="var(--fill-0, #FF401A)"/>
<path d="M25.8712 8.61949e-06L35.5497 0.00671733L36.946 5.26424L27.2832 5.26975L25.8712 8.61949e-06Z" fill="var(--fill-0, #FF401A)"/>
<path d="M6.41837 17.6861H16.0951L17.5071 22.9559H7.83039L6.41837 17.6861Z" fill="var(--fill-0, #FF401A)"/>
<path d="M5.32088 19.8465L6.41837 17.6861L7.83039 22.9559L6.73291 25.1163L5.32088 19.8465Z" fill="var(--fill-0, #FF401A)"/>
<path d="M6.41837 17.6861H16.0951L17.5071 22.9559H7.83039L6.41837 17.6861Z" fill="var(--fill-0, #FF401A)"/>
<path d="M2.9579 11.0313L4.05907 8.88314L5.47109 14.1529L4.36992 16.301L2.9579 11.0313Z" fill="var(--fill-0, #FF401A)"/>
<path d="M0.564229 2.09444L1.68119 0.00671575L3.07742 5.21602L1.97625 7.36418L0.564229 2.09444Z" fill="var(--fill-0, #FF401A)"/>
<path d="M12.6759 2.15488L13.777 0.00671733L15.189 5.27646L14.0879 7.42463L12.6759 2.15488Z" fill="var(--fill-0, #FF401A)"/>
<path d="M24.77 2.14818L25.8712 8.61949e-06L27.2832 5.26975L26.1821 7.41792L24.77 2.14818Z" fill="var(--fill-0, #FF401A)"/>
<path d="M15.0532 11.0272L16.1543 8.87902L17.5664 14.1488L16.4652 16.2969L15.0532 11.0272Z" fill="var(--fill-0, #FF401A)"/>
<path d="M7.83039 22.9559H17.5071L16.3451 25.1108L6.73291 25.1163L7.83039 22.9559Z" fill="var(--fill-0, #FF401A)"/>
<path d="M7.83039 22.9559H17.5071L16.3451 25.1108L6.73291 25.1163L7.83039 22.9559Z" fill="#FF401A"/>
<path d="M7.83039 22.9559H17.5071L16.3451 25.1108L6.73291 25.1163L7.83039 22.9559Z" fill="black" fill-opacity="0.35"/>
<path d="M5.46741 14.1484L15.1473 14.1488L13.9821 16.3033L4.36992 16.3088L5.46741 14.1484Z" fill="var(--fill-0, #FF401A)"/>
<path d="M5.46741 14.1484L15.1473 14.1488L13.9821 16.3033L4.36992 16.3088L5.46741 14.1484Z" fill="#FF401A"/>
<path d="M5.46741 14.1484L15.1473 14.1488L13.9821 16.3033L4.36992 16.3088L5.46741 14.1484Z" fill="black" fill-opacity="0.35"/>
<path d="M3.07715 5.21654H12.7539L11.5918 7.37144L1.97625 7.36418L3.07715 5.21654Z" fill="var(--fill-0, #FF401A)"/>
<path d="M3.07715 5.21654H12.7539L11.5918 7.37144L1.97625 7.36418L3.07715 5.21654Z" fill="#FF401A"/>
<path d="M3.07715 5.21654H12.7539L11.5918 7.37144L1.97625 7.36418L3.07715 5.21654Z" fill="black" fill-opacity="0.35"/>
<path d="M17.5664 14.1488L27.2284 14.1484L26.0664 16.3033L16.4652 16.2969L17.5664 14.1488Z" fill="var(--fill-0, #FF401A)"/>
<path d="M17.5664 14.1488L27.2284 14.1484L26.0664 16.3033L16.4652 16.2969L17.5664 14.1488Z" fill="#FF401A"/>
<path d="M17.5664 14.1488L27.2284 14.1484L26.0664 16.3033L16.4652 16.2969L17.5664 14.1488Z" fill="black" fill-opacity="0.35"/>
<path d="M15.1854 5.26423H24.8621L23.7 7.41913L14.0879 7.42463L15.1854 5.26423Z" fill="var(--fill-0, #FF401A)"/>
<path d="M15.1854 5.26423H24.8621L23.7 7.41913L14.0879 7.42463L15.1854 5.26423Z" fill="#FF401A"/>
<path d="M15.1854 5.26423H24.8621L23.7 7.41913L14.0879 7.42463L15.1854 5.26423Z" fill="black" fill-opacity="0.35"/>
<path d="M27.2832 5.26975L36.946 5.26424L35.784 7.41915L26.1718 7.42464L27.2832 5.26975Z" fill="var(--fill-0, #FF401A)"/>
<path d="M27.2832 5.26975L36.946 5.26424L35.784 7.41915L26.1718 7.42464L27.2832 5.26975Z" fill="#FF401A"/>
<path d="M27.2832 5.26975L36.946 5.26424L35.784 7.41915L26.1718 7.42464L27.2832 5.26975Z" fill="black" fill-opacity="0.35"/>
</g>
<g id="Finrez">
<path id="Vector" d="M125.235 7.20719V10.8222L115.294 21.6673H125.235V25.2823H110.775V21.6673L120.716 10.8222H110.775V7.20719H125.235Z" fill="var(--fill-0, #1B1B1B)"/>
<path id="Vector_2" d="M110.798 16.2447V17.1485H98.2177C98.6153 20.149 101.11 21.6673 103.568 21.6673C107.183 21.6673 108.99 19.8598 108.99 19.8598V23.4748C108.99 23.4748 107.183 25.2823 103.568 25.2823C98.1454 25.2823 94.5303 21.6673 94.5303 16.2447C94.5303 10.8222 98.1454 7.20719 102.664 7.20719C107.183 7.20719 110.798 10.8222 110.798 16.2447ZM102.664 10.8222C100.459 10.8222 98.8322 12.0152 98.3261 14.4372H107.002C106.496 12.0152 104.869 10.8222 102.664 10.8222Z" fill="var(--fill-0, #1B1B1B)"/>
<path id="Vector_3" d="M87.2961 14.4372C87.2961 9.91846 90.0073 7.20719 94.5261 7.20719V10.8222C90.9111 10.8222 87.2961 11.726 87.2961 16.2447V25.2823H83.6811V7.20719H87.2961V14.4372Z" fill="var(--fill-0, #1B1B1B)"/>
<path id="Vector_4" d="M76.2335 7.20719C79.8486 7.20719 82.5598 9.91846 82.5598 14.4372V25.2823H78.9448V16.2447C78.9448 12.6297 77.1373 10.8222 74.426 10.8222C71.7148 10.8222 69.9073 12.6297 69.9073 16.2447V25.2823H66.2922V7.20719H69.9073V14.4372C69.9073 9.91846 72.6185 7.20719 76.2335 7.20719Z" fill="var(--fill-0, #1B1B1B)"/>
<g id="i">
<path id="Vector_5" d="M61.4902 21.6902H65.1052V25.3052H54.2601V21.6902H57.8752V14.5059H54.2601V10.8908H61.4902V21.6902Z" fill="var(--fill-0, #1B1B1B)"/>
<path id="Vector_6" d="M61.4599 9.95278V7.2072H57.9135V9.95278H61.4599Z" fill="var(--fill-0, #1B1B1B)"/>
</g>
<path id="Vector_7" d="M56.738 3.61502H45.893V10.8451H53.123V14.4601H45.893V25.3052H42.2779V0H56.738V3.61502Z" fill="var(--fill-0, #1B1B1B)"/>
</g>
</g>
</svg>
