<svg width="874.84" height="176.772" overflow="visible" style="display: block;" viewBox="0 0 874.84 176.772" fill="none" xmlns="http://www.w3.org/2000/svg">
<g id="Finrez Logo">
<g id="F Blocks">
<path d="M28.3512 62.0252H95.9488L105.813 98.8375H38.215L28.3512 62.0252Z" fill="var(--fill-0, white)"/>
<path d="M112.848 62.0252H180.445L190.207 98.835L122.712 98.8375L112.848 62.0252Z" fill="var(--fill-0, white)"/>
<path d="M11.7441 0.0468802H79.3418L89.0934 36.4406H21.4958L11.7441 0.0468802Z" fill="var(--fill-0, white)"/>
<path d="M96.2407 0.0468912H163.838L173.702 36.8592H106.105L96.2407 0.0468912Z" fill="var(--fill-0, white)"/>
<path d="M180.726 2.68821e-05L248.336 0.0468912L258.09 36.7739L190.59 36.8123L180.726 2.68821e-05Z" fill="var(--fill-0, white)"/>
<path d="M44.8362 123.548H112.434L122.298 160.36H54.7L44.8362 123.548Z" fill="var(--fill-0, white)"/>
<path d="M37.1696 138.64L44.8362 123.548L54.7 160.36L47.0334 175.452L37.1696 138.64Z" fill="var(--fill-0, white)"/>
<path d="M44.8362 123.548H112.434L122.298 160.36H54.7L44.8362 123.548Z" fill="var(--fill-0, white)"/>
<path d="M20.6627 77.0602L28.355 62.054L38.2189 98.8663L30.5265 113.873L20.6627 77.0602Z" fill="var(--fill-0, white)"/>
<path d="M3.94148 14.6309L11.7441 0.0468802L21.4976 36.437L13.8053 51.4432L3.94148 14.6309Z" fill="var(--fill-0, white)"/>
<path d="M88.5484 15.0531L96.2407 0.0468912L106.105 36.8592L98.4122 51.8654L88.5484 15.0531Z" fill="var(--fill-0, white)"/>
<path d="M173.034 15.0063L180.726 2.68821e-05L190.59 36.8123L182.897 51.8185L173.034 15.0063Z" fill="var(--fill-0, white)"/>
<path d="M105.155 77.0315L112.848 62.0252L122.712 98.8375L115.019 113.844L105.155 77.0315Z" fill="var(--fill-0, white)"/>
<path d="M54.7 160.36H122.298L114.18 175.414L47.0334 175.452L54.7 160.36Z" fill="var(--fill-0, white)"/>
<path d="M54.7 160.36H122.298L114.18 175.414L47.0334 175.452L54.7 160.36Z" fill="white"/>
<path d="M54.7 160.36H122.298L114.18 175.414L47.0334 175.452L54.7 160.36Z" fill="black" fill-opacity="0.35"/>
<path d="M38.1931 98.8349L105.813 98.8375L97.6731 113.888L30.5265 113.927L38.1931 98.8349Z" fill="var(--fill-0, white)"/>
<path d="M38.1931 98.8349L105.813 98.8375L97.6731 113.888L30.5265 113.927L38.1931 98.8349Z" fill="white"/>
<path d="M38.1931 98.8349L105.813 98.8375L97.6731 113.888L30.5265 113.927L38.1931 98.8349Z" fill="black" fill-opacity="0.35"/>
<path d="M21.4958 36.4406H89.0934L80.9758 51.4938L13.8053 51.4432L21.4958 36.4406Z" fill="var(--fill-0, white)"/>
<path d="M21.4958 36.4406H89.0934L80.9758 51.4938L13.8053 51.4432L21.4958 36.4406Z" fill="white"/>
<path d="M21.4958 36.4406H89.0934L80.9758 51.4938L13.8053 51.4432L21.4958 36.4406Z" fill="black" fill-opacity="0.35"/>
<path d="M122.712 98.8375L190.207 98.835L182.089 113.888L115.019 113.844L122.712 98.8375Z" fill="var(--fill-0, white)"/>
<path d="M122.712 98.8375L190.207 98.835L182.089 113.888L115.019 113.844L122.712 98.8375Z" fill="white"/>
<path d="M122.712 98.8375L190.207 98.835L182.089 113.888L115.019 113.844L122.712 98.8375Z" fill="black" fill-opacity="0.35"/>
<path d="M106.079 36.7738H173.677L165.559 51.827L98.4122 51.8654L106.079 36.7738Z" fill="var(--fill-0, white)"/>
<path d="M106.079 36.7738H173.677L165.559 51.827L98.4122 51.8654L106.079 36.7738Z" fill="white"/>
<path d="M106.079 36.7738H173.677L165.559 51.827L98.4122 51.8654L106.079 36.7738Z" fill="black" fill-opacity="0.35"/>
<path d="M190.59 36.8123L258.09 36.7739L249.972 51.8271L182.826 51.8655L190.59 36.8123Z" fill="var(--fill-0, white)"/>
<path d="M190.59 36.8123L258.09 36.7739L249.972 51.8271L182.826 51.8655L190.59 36.8123Z" fill="white"/>
<path d="M190.59 36.8123L258.09 36.7739L249.972 51.8271L182.826 51.8655L190.59 36.8123Z" fill="black" fill-opacity="0.35"/>
</g>
<g id="Finrez">
<path id="Vector" d="M874.84 50.3466V75.5997L805.394 151.359H874.84V176.612H773.828V151.359L843.274 75.5997H773.828V50.3466H874.84Z" fill="var(--fill-0, white)"/>
<path id="Vector_2" d="M773.988 113.479V119.793H686.107C688.885 140.753 706.31 151.359 723.482 151.359C748.735 151.359 761.362 138.732 761.362 138.732V163.985C761.362 163.985 748.735 176.612 723.482 176.612C685.602 176.612 660.349 151.359 660.349 113.479C660.349 75.5997 685.602 50.3466 717.169 50.3466C748.735 50.3466 773.988 75.5997 773.988 113.479ZM717.169 75.5997C701.764 75.5997 690.4 83.9332 686.865 100.853H747.472C743.937 83.9332 732.573 75.5997 717.169 75.5997Z" fill="var(--fill-0, white)"/>
<path id="Vector_3" d="M609.814 100.853C609.814 69.2864 628.754 50.3466 660.32 50.3466V75.5997C635.067 75.5997 609.814 81.9129 609.814 113.479V176.612H584.561V50.3466H609.814V100.853Z" fill="var(--fill-0, white)"/>
<path id="Vector_4" d="M532.536 50.3466C557.789 50.3466 576.729 69.2864 576.729 100.853V176.612H551.476V113.479C551.476 88.2262 538.849 75.5997 519.909 75.5997C500.969 75.5997 488.343 88.2262 488.343 113.479V176.612H463.09V50.3466H488.343V100.853C488.343 69.2864 507.283 50.3466 532.536 50.3466Z" fill="var(--fill-0, white)"/>
<g id="i">
<path id="Vector_5" d="M429.544 151.518H454.798V176.771H379.038V151.518H404.291V101.331H379.038V76.078H429.544V151.518Z" fill="var(--fill-0, white)"/>
<path id="Vector_6" d="M429.334 69.526V50.3465H404.56V69.526H429.334Z" fill="var(--fill-0, white)"/>
</g>
<path id="Vector_7" d="M396.348 25.2531H320.589V75.7593H371.095V101.012H320.589V176.772H295.336V0H396.348V25.2531Z" fill="var(--fill-0, white)"/>
</g>
</g>
</svg>
